<mxfile host="app.diagrams.net" agent="Mozilla/5.0 (Windows NT 10.0; Win64; x64; rv:139.0) Gecko/20100101 Firefox/139.0" version="27.1.6">
  <diagram name="Page-1" id="BcVu8hqipLbdM3kNuwZz">
    <mxGraphModel dx="1026" dy="680" grid="1" gridSize="10" guides="1" tooltips="1" connect="1" arrows="1" fold="1" page="1" pageScale="1" pageWidth="850" pageHeight="1100" math="0" shadow="0">
      <root>
        <mxCell id="0" />
        <mxCell id="1" parent="0" />
        <mxCell id="BvTuMyDt2Zb30Xh8HnP4-1" value="&lt;div&gt;Start&lt;/div&gt;" style="ellipse;whiteSpace=wrap;html=1;fillColor=light-dark(#FFFFFF,#564391);" vertex="1" parent="1">
          <mxGeometry x="340" y="10" width="120" height="40" as="geometry" />
        </mxCell>
        <mxCell id="BvTuMyDt2Zb30Xh8HnP4-2" value="" style="endArrow=classic;html=1;rounded=0;exitX=0.5;exitY=1;exitDx=0;exitDy=0;entryX=0.5;entryY=0;entryDx=0;entryDy=0;" edge="1" parent="1" source="BvTuMyDt2Zb30Xh8HnP4-1" target="BvTuMyDt2Zb30Xh8HnP4-3">
          <mxGeometry width="50" height="50" relative="1" as="geometry">
            <mxPoint x="360" y="110" as="sourcePoint" />
            <mxPoint x="365" y="100" as="targetPoint" />
          </mxGeometry>
        </mxCell>
        <mxCell id="BvTuMyDt2Zb30Xh8HnP4-7" value="" style="edgeStyle=orthogonalEdgeStyle;rounded=0;orthogonalLoop=1;jettySize=auto;html=1;" edge="1" parent="1" source="BvTuMyDt2Zb30Xh8HnP4-3" target="BvTuMyDt2Zb30Xh8HnP4-6">
          <mxGeometry relative="1" as="geometry" />
        </mxCell>
        <mxCell id="BvTuMyDt2Zb30Xh8HnP4-10" value="" style="edgeStyle=orthogonalEdgeStyle;rounded=0;orthogonalLoop=1;jettySize=auto;html=1;" edge="1" parent="1" source="BvTuMyDt2Zb30Xh8HnP4-3" target="BvTuMyDt2Zb30Xh8HnP4-6">
          <mxGeometry relative="1" as="geometry" />
        </mxCell>
        <mxCell id="BvTuMyDt2Zb30Xh8HnP4-3" value="&lt;div&gt;Determine &amp;amp; Initialize&lt;/div&gt;&lt;div&gt;&amp;nbsp;Boundary Condition and Equation&amp;nbsp;&lt;/div&gt;" style="rounded=1;whiteSpace=wrap;html=1;strokeColor=default;align=center;verticalAlign=middle;fontFamily=Helvetica;fontSize=9;fontColor=default;fillColor=light-dark(#FFFFFF,#564391);" vertex="1" parent="1">
          <mxGeometry x="340" y="90" width="120" height="50" as="geometry" />
        </mxCell>
        <mxCell id="BvTuMyDt2Zb30Xh8HnP4-9" value="" style="edgeStyle=orthogonalEdgeStyle;rounded=0;orthogonalLoop=1;jettySize=auto;html=1;" edge="1" parent="1" source="BvTuMyDt2Zb30Xh8HnP4-6" target="BvTuMyDt2Zb30Xh8HnP4-8">
          <mxGeometry relative="1" as="geometry" />
        </mxCell>
        <mxCell id="BvTuMyDt2Zb30Xh8HnP4-6" value="Input NIM/SID" style="rounded=1;whiteSpace=wrap;html=1;fillColor=light-dark(#FFFFFF,#564391);fontSize=9;" vertex="1" parent="1">
          <mxGeometry x="340" y="170" width="120" height="60" as="geometry" />
        </mxCell>
        <mxCell id="BvTuMyDt2Zb30Xh8HnP4-14" value="" style="edgeStyle=orthogonalEdgeStyle;rounded=0;orthogonalLoop=1;jettySize=auto;html=1;" edge="1" parent="1" source="BvTuMyDt2Zb30Xh8HnP4-8" target="BvTuMyDt2Zb30Xh8HnP4-13">
          <mxGeometry relative="1" as="geometry" />
        </mxCell>
        <mxCell id="BvTuMyDt2Zb30Xh8HnP4-8" value="&lt;div&gt;Apply Boundary Conditions based on inputted NIM/SID&lt;/div&gt;" style="rounded=1;whiteSpace=wrap;html=1;fillColor=light-dark(#FFFFFF,#564391);fontSize=10;" vertex="1" parent="1">
          <mxGeometry x="340" y="260" width="120" height="60" as="geometry" />
        </mxCell>
        <mxCell id="BvTuMyDt2Zb30Xh8HnP4-18" value="" style="edgeStyle=orthogonalEdgeStyle;rounded=0;orthogonalLoop=1;jettySize=auto;html=1;" edge="1" parent="1" source="BvTuMyDt2Zb30Xh8HnP4-13" target="BvTuMyDt2Zb30Xh8HnP4-17">
          <mxGeometry relative="1" as="geometry" />
        </mxCell>
        <mxCell id="BvTuMyDt2Zb30Xh8HnP4-13" value="&lt;div&gt;Dirichlet Method&lt;/div&gt;" style="rounded=1;whiteSpace=wrap;html=1;fontSize=10;fillColor=light-dark(#FFFFFF,#564391);" vertex="1" parent="1">
          <mxGeometry x="340" y="340" width="120" height="60" as="geometry" />
        </mxCell>
        <mxCell id="BvTuMyDt2Zb30Xh8HnP4-20" value="" style="edgeStyle=orthogonalEdgeStyle;rounded=0;orthogonalLoop=1;jettySize=auto;html=1;" edge="1" parent="1" source="BvTuMyDt2Zb30Xh8HnP4-17" target="BvTuMyDt2Zb30Xh8HnP4-19">
          <mxGeometry relative="1" as="geometry" />
        </mxCell>
        <mxCell id="BvTuMyDt2Zb30Xh8HnP4-17" value="&lt;div&gt;Define Iteration&lt;/div&gt;" style="rounded=1;whiteSpace=wrap;html=1;fontSize=10;fillColor=light-dark(#FFFFFF,#564391);" vertex="1" parent="1">
          <mxGeometry x="340" y="420" width="120" height="60" as="geometry" />
        </mxCell>
        <mxCell id="BvTuMyDt2Zb30Xh8HnP4-22" value="" style="edgeStyle=orthogonalEdgeStyle;rounded=0;orthogonalLoop=1;jettySize=auto;html=1;" edge="1" parent="1" source="BvTuMyDt2Zb30Xh8HnP4-19" target="BvTuMyDt2Zb30Xh8HnP4-21">
          <mxGeometry relative="1" as="geometry" />
        </mxCell>
        <mxCell id="BvTuMyDt2Zb30Xh8HnP4-23" value="&lt;div&gt;Solve interior point&lt;/div&gt;&lt;div&gt;T(i,j)&lt;/div&gt;" style="edgeLabel;html=1;align=center;verticalAlign=middle;resizable=0;points=[];" vertex="1" connectable="0" parent="BvTuMyDt2Zb30Xh8HnP4-22">
          <mxGeometry x="-0.0057" y="1" relative="1" as="geometry">
            <mxPoint as="offset" />
          </mxGeometry>
        </mxCell>
        <mxCell id="BvTuMyDt2Zb30Xh8HnP4-19" value="Gauss-Seidel Method&amp;nbsp;&lt;br&gt;&lt;div&gt;(Problem 1)&lt;/div&gt;" style="rounded=1;whiteSpace=wrap;html=1;fontSize=10;fillColor=light-dark(#FFFFFF,#564391);" vertex="1" parent="1">
          <mxGeometry x="340" y="510" width="120" height="60" as="geometry" />
        </mxCell>
        <mxCell id="BvTuMyDt2Zb30Xh8HnP4-24" style="edgeStyle=orthogonalEdgeStyle;rounded=0;orthogonalLoop=1;jettySize=auto;html=1;exitX=0.033;exitY=0.512;exitDx=0;exitDy=0;entryX=-0.017;entryY=0.369;entryDx=0;entryDy=0;entryPerimeter=0;exitPerimeter=0;" edge="1" parent="1" source="BvTuMyDt2Zb30Xh8HnP4-21" target="BvTuMyDt2Zb30Xh8HnP4-19">
          <mxGeometry relative="1" as="geometry">
            <mxPoint x="280" y="530" as="targetPoint" />
            <Array as="points">
              <mxPoint x="290" y="666" />
              <mxPoint x="290" y="532" />
            </Array>
          </mxGeometry>
        </mxCell>
        <mxCell id="BvTuMyDt2Zb30Xh8HnP4-26" value="No" style="edgeLabel;html=1;align=center;verticalAlign=middle;resizable=0;points=[];" vertex="1" connectable="0" parent="BvTuMyDt2Zb30Xh8HnP4-24">
          <mxGeometry x="-0.1079" y="-2" relative="1" as="geometry">
            <mxPoint as="offset" />
          </mxGeometry>
        </mxCell>
        <mxCell id="BvTuMyDt2Zb30Xh8HnP4-28" value="" style="edgeStyle=orthogonalEdgeStyle;rounded=0;orthogonalLoop=1;jettySize=auto;html=1;" edge="1" parent="1" source="BvTuMyDt2Zb30Xh8HnP4-21" target="BvTuMyDt2Zb30Xh8HnP4-27">
          <mxGeometry relative="1" as="geometry" />
        </mxCell>
        <mxCell id="BvTuMyDt2Zb30Xh8HnP4-21" value="All points checked?" style="rhombus;whiteSpace=wrap;html=1;fontSize=10;fillColor=light-dark(#FFFFFF,#564391);rounded=1;" vertex="1" parent="1">
          <mxGeometry x="325" y="640" width="150" height="50" as="geometry" />
        </mxCell>
        <mxCell id="BvTuMyDt2Zb30Xh8HnP4-29" style="edgeStyle=orthogonalEdgeStyle;rounded=0;orthogonalLoop=1;jettySize=auto;html=1;entryX=1.011;entryY=0.41;entryDx=0;entryDy=0;entryPerimeter=0;" edge="1" parent="1">
          <mxGeometry relative="1" as="geometry">
            <mxPoint x="608.68" y="632.71" as="sourcePoint" />
            <mxPoint x="459.99999999999994" y="447.31" as="targetPoint" />
            <Array as="points">
              <mxPoint x="610" y="633" />
              <mxPoint x="610" y="447" />
            </Array>
          </mxGeometry>
        </mxCell>
        <mxCell id="BvTuMyDt2Zb30Xh8HnP4-30" value="&lt;div&gt;No&lt;/div&gt;" style="edgeLabel;html=1;align=center;verticalAlign=middle;resizable=0;points=[];" vertex="1" connectable="0" parent="BvTuMyDt2Zb30Xh8HnP4-29">
          <mxGeometry x="-0.5654" y="-2" relative="1" as="geometry">
            <mxPoint as="offset" />
          </mxGeometry>
        </mxCell>
        <mxCell id="BvTuMyDt2Zb30Xh8HnP4-32" value="" style="edgeStyle=orthogonalEdgeStyle;rounded=0;orthogonalLoop=1;jettySize=auto;html=1;exitX=0.5;exitY=1;exitDx=0;exitDy=0;entryX=1;entryY=0.5;entryDx=0;entryDy=0;" edge="1" parent="1" source="BvTuMyDt2Zb30Xh8HnP4-27" target="BvTuMyDt2Zb30Xh8HnP4-34">
          <mxGeometry relative="1" as="geometry">
            <mxPoint x="460" y="840" as="targetPoint" />
            <Array as="points">
              <mxPoint x="610" y="840" />
            </Array>
          </mxGeometry>
        </mxCell>
        <mxCell id="BvTuMyDt2Zb30Xh8HnP4-33" value="Yes" style="edgeLabel;html=1;align=center;verticalAlign=middle;resizable=0;points=[];" vertex="1" connectable="0" parent="BvTuMyDt2Zb30Xh8HnP4-32">
          <mxGeometry x="-0.5172" y="-1" relative="1" as="geometry">
            <mxPoint as="offset" />
          </mxGeometry>
        </mxCell>
        <mxCell id="BvTuMyDt2Zb30Xh8HnP4-27" value="Converged in n iteration?" style="rhombus;whiteSpace=wrap;html=1;fontSize=10;fillColor=light-dark(#FFFFFF,#564391);rounded=1;" vertex="1" parent="1">
          <mxGeometry x="530" y="630" width="160" height="70" as="geometry" />
        </mxCell>
        <mxCell id="BvTuMyDt2Zb30Xh8HnP4-37" value="" style="edgeStyle=orthogonalEdgeStyle;rounded=0;orthogonalLoop=1;jettySize=auto;html=1;" edge="1" parent="1" source="BvTuMyDt2Zb30Xh8HnP4-34" target="BvTuMyDt2Zb30Xh8HnP4-36">
          <mxGeometry relative="1" as="geometry" />
        </mxCell>
        <mxCell id="BvTuMyDt2Zb30Xh8HnP4-34" value="&lt;div&gt;&lt;font style=&quot;font-size: 9px;&quot;&gt;Solution of all Points&lt;/font&gt;&lt;/div&gt;&lt;div&gt;&lt;font style=&quot;font-size: 9px;&quot;&gt;&lt;br&gt;&lt;/font&gt;&lt;/div&gt;" style="shape=parallelogram;perimeter=parallelogramPerimeter;whiteSpace=wrap;html=1;fixedSize=1;strokeColor=default;align=center;verticalAlign=middle;fontFamily=Helvetica;fontSize=12;fontColor=default;fillColor=light-dark(#FFFFFF,#564391);" vertex="1" parent="1">
          <mxGeometry x="355" y="800" width="115" height="60" as="geometry" />
        </mxCell>
        <mxCell id="BvTuMyDt2Zb30Xh8HnP4-39" value="" style="edgeStyle=orthogonalEdgeStyle;rounded=0;orthogonalLoop=1;jettySize=auto;html=1;" edge="1" parent="1" source="BvTuMyDt2Zb30Xh8HnP4-36" target="BvTuMyDt2Zb30Xh8HnP4-38">
          <mxGeometry relative="1" as="geometry" />
        </mxCell>
        <mxCell id="BvTuMyDt2Zb30Xh8HnP4-36" value="Plot" style="whiteSpace=wrap;html=1;fillColor=light-dark(#FFFFFF,#564391);" vertex="1" parent="1">
          <mxGeometry x="352.5" y="900" width="120" height="60" as="geometry" />
        </mxCell>
        <mxCell id="BvTuMyDt2Zb30Xh8HnP4-38" value="End" style="ellipse;whiteSpace=wrap;html=1;fillColor=light-dark(#FFFFFF,#564391);" vertex="1" parent="1">
          <mxGeometry x="364.38" y="1020" width="95.62" height="30" as="geometry" />
        </mxCell>
      </root>
    </mxGraphModel>
  </diagram>
</mxfile>
